solid clyde whirley 
facet normal 0.0 -1.0 0.0
  outer loop
    vertex 640.8196569989063 79.29737452278361 2.1623662674942508
    vertex 620.3937797292124 79.29737452278361 -0.25063373250574905
    vertex 640.8196569989063 79.29737452278361 -0.25063373250574905
  endloop
endfacet
facet normal 0.0 -1.0 0.0
  outer loop
    vertex 620.3937797292124 79.29737452278361 -0.25063373250574905
    vertex 640.8196569989063 79.29737452278361 2.1623662674942508
    vertex 620.3937797292124 79.29737452278361 2.1623662674942508
  endloop
endfacet
facet normal 1.0 0.0 0.0
  outer loop
    vertex 620.3937797292124 79.29737452278361 -0.25063373250574905
    vertex 620.3937797292124 59.4936258597802 2.1623662674942508
    vertex 620.3937797292124 59.4936258597802 -0.25063373250574905
  endloop
endfacet
facet normal 1.0 0.0 0.0
  outer loop
    vertex 620.3937797292124 59.4936258597802 2.1623662674942508
    vertex 620.3937797292124 79.29737452278361 -0.25063373250574905
    vertex 620.3937797292124 79.29737452278361 2.1623662674942508
  endloop
endfacet
facet normal 0.7081857709943841 0.7060261424062779 0.0
  outer loop
    vertex 597.5549024595185 77.36828224122114 -0.25063373250574905
    vertex 616.1366031447602 58.729742907089246 2.1623662674942508
    vertex 616.1366031447602 58.729742907089246 -0.25063373250574905
  endloop
endfacet
facet normal 0.7081857709943841 0.7060261424062779 0.0
  outer loop
    vertex 616.1366031447602 58.729742907089246 2.1623662674942508
    vertex 597.5549024595185 77.36828224122114 -0.25063373250574905
    vertex 597.5549024595185 77.36828224122114 2.1623662674942508
  endloop
endfacet
facet normal -0.3826834323651003 0.9238795325112823 0.0
  outer loop
    vertex 616.1366031447602 58.729742907089246 2.1623662674942508
    vertex 617.9807797292124 59.49362585978024 -0.25063373250574905
    vertex 616.1366031447602 58.729742907089246 -0.25063373250574905
  endloop
endfacet
facet normal -0.3826834323651003 0.9238795325112823 0.0
  outer loop
    vertex 617.9807797292124 59.49362585978024 -0.25063373250574905
    vertex 616.1366031447602 58.729742907089246 2.1623662674942508
    vertex 617.9807797292124 59.49362585978024 2.1623662674942508
  endloop
endfacet
facet normal -0.7081857709943832 0.7060261424062789 0.0
  outer loop
    vertex 640.8196569989063 77.36828224122114 2.1623662674942508
    vertex 622.2379563136645 58.72974290708926 -0.25063373250574905
    vertex 622.2379563136645 58.72974290708926 2.1623662674942508
  endloop
endfacet
facet normal -0.7081857709943832 0.7060261424062789 0.0
  outer loop
    vertex 622.2379563136645 58.72974290708926 -0.25063373250574905
    vertex 640.8196569989063 77.36828224122114 2.1623662674942508
    vertex 640.8196569989063 77.36828224122114 -0.25063373250574905
  endloop
endfacet
facet normal 0.0 -1.0 0.0
  outer loop
    vertex 595.8328571863617 75.67787452278361 2.1623662674942508
    vertex 593.9354024595184 75.67787452278361 -0.25063373250574905
    vertex 595.8328571863617 75.67787452278361 -0.25063373250574905
  endloop
endfacet
facet normal 0.0 -1.0 0.0
  outer loop
    vertex 593.9354024595184 75.67787452278361 -0.25063373250574905
    vertex 595.8328571863617 75.67787452278361 2.1623662674942508
    vertex 593.9354024595184 75.67787452278361 2.1623662674942508
  endloop
endfacet
facet normal 0.3826834323650784 0.9238795325112915 0.0
  outer loop
    vertex 620.3937797292124 59.4936258597802 2.1623662674942508
    vertex 622.2379563136645 58.72974290708926 -0.25063373250574905
    vertex 620.3937797292124 59.4936258597802 -0.25063373250574905
  endloop
endfacet
facet normal 0.3826834323650784 0.9238795325112915 0.0
  outer loop
    vertex 622.2379563136645 58.72974290708926 -0.25063373250574905
    vertex 620.3937797292124 59.4936258597802 2.1623662674942508
    vertex 622.2379563136645 58.72974290708926 2.1623662674942508
  endloop
endfacet
facet normal -8.694805374441971e-15 1.0 0.0
  outer loop
    vertex 593.9354024595184 55.16737452278315 2.1623662674942508
    vertex 613.6545283922155 55.16737452278332 -0.25063373250574905
    vertex 593.9354024595184 55.16737452278315 -0.25063373250574905
  endloop
endfacet
facet normal -8.694805374441971e-15 1.0 0.0
  outer loop
    vertex 613.6545283922155 55.16737452278332 -0.25063373250574905
    vertex 593.9354024595184 55.16737452278315 2.1623662674942508
    vertex 613.6545283922155 55.16737452278332 2.1623662674942508
  endloop
endfacet
facet normal 0.0 0.0 -1.0
  outer loop
    vertex 595.8328571863617 75.67787452278361 -0.25063373250574905
    vertex 597.5549024595185 77.36828224122114 -0.25063373250574905
    vertex 614.4254107344844 57.028449128483054 -0.25063373250574905
  endloop
endfacet
facet normal 0.0 0.0 -1.0
  outer loop
    vertex 597.5549024595185 77.36828224122114 -0.25063373250574905
    vertex 595.8328571863617 75.67787452278361 -0.25063373250574905
    vertex 597.5549024595185 79.29737452278361 -0.25063373250574905
  endloop
endfacet
facet normal 0.0 0.0 -1.0
  outer loop
    vertex 614.4254107344844 57.028449128483054 -0.25063373250574905
    vertex 597.5549024595185 77.36828224122114 -0.25063373250574905
    vertex 616.1366031447602 58.729742907089246 -0.25063373250574905
  endloop
endfacet
facet normal 0.0 0.0 -1.0
  outer loop
    vertex 614.4254107344844 57.028449128483054 -0.25063373250574905
    vertex 616.1366031447602 58.729742907089246 -0.25063373250574905
    vertex 614.4254107344844 50.89329991708362 -0.25063373250574905
  endloop
endfacet
facet normal 0.0 0.0 -1.0
  outer loop
    vertex 614.4254107344844 50.89329991708362 -0.25063373250574905
    vertex 597.5549024595185 30.553466804345142 -0.25063373250574905
    vertex 595.8328571863616 32.24387452278262 -0.25063373250574905
  endloop
endfacet
facet normal 0.0 0.0 -1.0
  outer loop
    vertex 597.5549024595185 30.553466804345142 -0.25063373250574905
    vertex 614.4254107344844 50.89329991708362 -0.25063373250574905
    vertex 616.1366031447603 49.19200613847743 -0.25063373250574905
  endloop
endfacet
facet normal 0.0 0.0 -1.0
  outer loop
    vertex 616.1366031447603 49.19200613847743 -0.25063373250574905
    vertex 614.4254107344844 50.89329991708362 -0.25063373250574905
    vertex 616.1366031447602 58.729742907089246 -0.25063373250574905
  endloop
endfacet
facet normal 0.0 0.0 -1.0
  outer loop
    vertex 616.1366031447603 49.19200613847743 -0.25063373250574905
    vertex 616.1366031447602 58.729742907089246 -0.25063373250574905
    vertex 617.9807797292124 59.49362585978024 -0.25063373250574905
  endloop
endfacet
facet normal 0.0 0.0 -1.0
  outer loop
    vertex 616.1366031447603 49.19200613847743 -0.25063373250574905
    vertex 617.9807797292124 59.49362585978024 -0.25063373250574905
    vertex 617.9807797292124 48.42812318578651 -0.25063373250574905
  endloop
endfacet
facet normal 0.0 0.0 -1.0
  outer loop
    vertex 613.6545283922155 55.16737452278332 -0.25063373250574905
    vertex 593.9354024595184 52.75437452278316 -0.25063373250574905
    vertex 593.9354024595184 55.16737452278315 -0.25063373250574905
  endloop
endfacet
facet normal 0.0 0.0 -1.0
  outer loop
    vertex 593.9354024595184 52.75437452278316 -0.25063373250574905
    vertex 613.6545283922155 55.16737452278332 -0.25063373250574905
    vertex 613.6545283922155 52.754374522783316 -0.25063373250574905
  endloop
endfacet
facet normal 0.0 0.0 -1.0
  outer loop
    vertex 613.6545283922155 52.754374522783316 -0.25063373250574905
    vertex 613.6545283922155 55.16737452278332 -0.25063373250574905
    vertex 614.4254107344844 57.028449128483054 -0.25063373250574905
  endloop
endfacet
facet normal 0.0 0.0 -1.0
  outer loop
    vertex 613.6545283922155 52.754374522783316 -0.25063373250574905
    vertex 614.4254107344844 57.028449128483054 -0.25063373250574905
    vertex 614.4254107344844 50.89329991708362 -0.25063373250574905
  endloop
endfacet
facet normal 0.0 0.0 -1.0
  outer loop
    vertex 622.2379563136645 49.19200613847749 -0.25063373250574905
    vertex 623.9491487239403 50.893299917083716 -0.25063373250574905
    vertex 640.8196569989063 30.553466804345934 -0.25063373250574905
  endloop
endfacet
facet normal 0.0 0.0 -1.0
  outer loop
    vertex 623.9491487239403 50.893299917083716 -0.25063373250574905
    vertex 622.2379563136645 49.19200613847749 -0.25063373250574905
    vertex 623.9491487239402 57.02844912848305 -0.25063373250574905
  endloop
endfacet
facet normal 0.0 0.0 -1.0
  outer loop
    vertex 640.8196569989063 30.553466804345934 -0.25063373250574905
    vertex 623.9491487239403 50.893299917083716 -0.25063373250574905
    vertex 642.541702272063 32.2438745227836 -0.25063373250574905
  endloop
endfacet
facet normal 0.0 0.0 -1.0
  outer loop
    vertex 640.8196569989063 30.553466804345934 -0.25063373250574905
    vertex 642.541702272063 32.2438745227836 -0.25063373250574905
    vertex 640.8196569989063 28.624374522783526 -0.25063373250574905
  endloop
endfacet
facet normal 0.0 0.0 -1.0
  outer loop
    vertex 591.5224024595185 81.71037452278361 -0.25063373250574905
    vertex 593.9354024595184 75.67787452278361 -0.25063373250574905
    vertex 591.5224024595185 26.21137452278262 -0.25063373250574905
  endloop
endfacet
facet normal 0.0 0.0 -1.0
  outer loop
    vertex 593.9354024595184 75.67787452278361 -0.25063373250574905
    vertex 591.5224024595185 81.71037452278361 -0.25063373250574905
    vertex 597.5549024595185 79.29737452278361 -0.25063373250574905
  endloop
endfacet
facet normal 0.0 0.0 -1.0
  outer loop
    vertex 597.5549024595185 79.29737452278361 -0.25063373250574905
    vertex 591.5224024595185 81.71037452278361 -0.25063373250574905
    vertex 646.8521569989064 81.71037452278361 -0.25063373250574905
  endloop
endfacet
facet normal 0.0 0.0 -1.0
  outer loop
    vertex 593.9354024595184 75.67787452278361 -0.25063373250574905
    vertex 597.5549024595185 79.29737452278361 -0.25063373250574905
    vertex 595.8328571863617 75.67787452278361 -0.25063373250574905
  endloop
endfacet
facet normal 0.0 0.0 -1.0
  outer loop
    vertex 597.5549024595185 79.29737452278361 -0.25063373250574905
    vertex 646.8521569989064 81.71037452278361 -0.25063373250574905
    vertex 617.9807797292124 79.29737452278361 -0.25063373250574905
  endloop
endfacet
facet normal 0.0 0.0 -1.0
  outer loop
    vertex 617.9807797292124 79.29737452278361 -0.25063373250574905
    vertex 646.8521569989064 81.71037452278361 -0.25063373250574905
    vertex 620.3937797292124 79.29737452278361 -0.25063373250574905
  endloop
endfacet
facet normal 0.0 0.0 -1.0
  outer loop
    vertex 617.9807797292124 79.29737452278361 -0.25063373250574905
    vertex 620.3937797292124 79.29737452278361 -0.25063373250574905
    vertex 617.9807797292124 59.49362585978024 -0.25063373250574905
  endloop
endfacet
facet normal 0.0 0.0 -1.0
  outer loop
    vertex 617.9807797292124 59.49362585978024 -0.25063373250574905
    vertex 620.3937797292124 79.29737452278361 -0.25063373250574905
    vertex 617.9807797292124 48.42812318578651 -0.25063373250574905
  endloop
endfacet
facet normal 0.0 0.0 -1.0
  outer loop
    vertex 617.9807797292124 48.42812318578651 -0.25063373250574905
    vertex 620.3937797292124 79.29737452278361 -0.25063373250574905
    vertex 617.9807797292124 28.6243745227831 -0.25063373250574905
  endloop
endfacet
facet normal 0.0 0.0 -1.0
  outer loop
    vertex 620.3937797292124 79.29737452278361 -0.25063373250574905
    vertex 646.8521569989064 81.71037452278361 -0.25063373250574905
    vertex 640.8196569989063 79.29737452278361 -0.25063373250574905
  endloop
endfacet
facet normal 0.0 0.0 -1.0
  outer loop
    vertex 640.8196569989063 79.29737452278361 -0.25063373250574905
    vertex 646.8521569989064 81.71037452278361 -0.25063373250574905
    vertex 640.8196569989063 77.36828224122114 -0.25063373250574905
  endloop
endfacet
facet normal 0.0 0.0 -1.0
  outer loop
    vertex 640.8196569989063 77.36828224122114 -0.25063373250574905
    vertex 646.8521569989064 81.71037452278361 -0.25063373250574905
    vertex 642.541702272063 75.67787452278361 -0.25063373250574905
  endloop
endfacet
facet normal 0.0 0.0 -1.0
  outer loop
    vertex 642.541702272063 75.67787452278361 -0.25063373250574905
    vertex 646.8521569989064 81.71037452278361 -0.25063373250574905
    vertex 644.4391569989062 75.67787452278361 -0.25063373250574905
  endloop
endfacet
facet normal 0.0 0.0 -1.0
  outer loop
    vertex 644.4391569989062 75.67787452278361 -0.25063373250574905
    vertex 646.8521569989064 81.71037452278361 -0.25063373250574905
    vertex 644.4391569989062 55.16737452278356 -0.25063373250574905
  endloop
endfacet
facet normal 0.0 0.0 -1.0
  outer loop
    vertex 644.4391569989062 55.16737452278356 -0.25063373250574905
    vertex 646.8521569989064 81.71037452278361 -0.25063373250574905
    vertex 644.4391569989062 52.754374522783564 -0.25063373250574905
  endloop
endfacet
facet normal 0.0 0.0 -1.0
  outer loop
    vertex 644.4391569989062 52.754374522783564 -0.25063373250574905
    vertex 646.8521569989064 81.71037452278361 -0.25063373250574905
    vertex 644.4391569989062 32.2438745227836 -0.25063373250574905
  endloop
endfacet
facet normal 0.0 0.0 -1.0
  outer loop
    vertex 591.5224024595185 26.21137452278262 -0.25063373250574905
    vertex 597.5549024595185 28.62437452278267 -0.25063373250574905
    vertex 646.8521569989064 26.211374522783597 -0.25063373250574905
  endloop
endfacet
facet normal 0.0 0.0 -1.0
  outer loop
    vertex 597.5549024595185 28.62437452278267 -0.25063373250574905
    vertex 591.5224024595185 26.21137452278262 -0.25063373250574905
    vertex 593.9354024595184 32.24387452278262 -0.25063373250574905
  endloop
endfacet
facet normal 0.0 0.0 -1.0
  outer loop
    vertex 593.9354024595184 32.24387452278262 -0.25063373250574905
    vertex 591.5224024595185 26.21137452278262 -0.25063373250574905
    vertex 593.9354024595184 75.67787452278361 -0.25063373250574905
  endloop
endfacet
facet normal 0.0 0.0 -1.0
  outer loop
    vertex 593.9354024595184 32.24387452278262 -0.25063373250574905
    vertex 593.9354024595184 75.67787452278361 -0.25063373250574905
    vertex 593.9354024595184 55.16737452278315 -0.25063373250574905
  endloop
endfacet
facet normal 0.0 0.0 -1.0
  outer loop
    vertex 593.9354024595184 32.24387452278262 -0.25063373250574905
    vertex 593.9354024595184 55.16737452278315 -0.25063373250574905
    vertex 593.9354024595184 52.75437452278316 -0.25063373250574905
  endloop
endfacet
facet normal 0.0 0.0 -1.0
  outer loop
    vertex 597.5549024595185 28.62437452278267 -0.25063373250574905
    vertex 593.9354024595184 32.24387452278262 -0.25063373250574905
    vertex 595.8328571863616 32.24387452278262 -0.25063373250574905
  endloop
endfacet
facet normal 0.0 0.0 -1.0
  outer loop
    vertex 597.5549024595185 28.62437452278267 -0.25063373250574905
    vertex 595.8328571863616 32.24387452278262 -0.25063373250574905
    vertex 597.5549024595185 30.553466804345142 -0.25063373250574905
  endloop
endfacet
facet normal 0.0 0.0 -1.0
  outer loop
    vertex 646.8521569989064 26.211374522783597 -0.25063373250574905
    vertex 597.5549024595185 28.62437452278267 -0.25063373250574905
    vertex 617.9807797292124 28.6243745227831 -0.25063373250574905
  endloop
endfacet
facet normal 0.0 0.0 -1.0
  outer loop
    vertex 646.8521569989064 26.211374522783597 -0.25063373250574905
    vertex 617.9807797292124 28.6243745227831 -0.25063373250574905
    vertex 620.3937797292124 28.624374522783132 -0.25063373250574905
  endloop
endfacet
facet normal 0.0 0.0 -1.0
  outer loop
    vertex 620.3937797292124 28.624374522783132 -0.25063373250574905
    vertex 617.9807797292124 28.6243745227831 -0.25063373250574905
    vertex 620.3937797292124 79.29737452278361 -0.25063373250574905
  endloop
endfacet
facet normal 0.0 0.0 -1.0
  outer loop
    vertex 620.3937797292124 28.624374522783132 -0.25063373250574905
    vertex 620.3937797292124 79.29737452278361 -0.25063373250574905
    vertex 620.3937797292124 59.4936258597802 -0.25063373250574905
  endloop
endfacet
facet normal 0.0 0.0 -1.0
  outer loop
    vertex 620.3937797292124 28.624374522783132 -0.25063373250574905
    vertex 620.3937797292124 59.4936258597802 -0.25063373250574905
    vertex 620.3937797292124 48.428123185786475 -0.25063373250574905
  endloop
endfacet
facet normal 0.0 0.0 -1.0
  outer loop
    vertex 646.8521569989064 26.211374522783597 -0.25063373250574905
    vertex 620.3937797292124 28.624374522783132 -0.25063373250574905
    vertex 640.8196569989063 28.624374522783526 -0.25063373250574905
  endloop
endfacet
facet normal 0.0 0.0 -1.0
  outer loop
    vertex 646.8521569989064 26.211374522783597 -0.25063373250574905
    vertex 640.8196569989063 28.624374522783526 -0.25063373250574905
    vertex 642.541702272063 32.2438745227836 -0.25063373250574905
  endloop
endfacet
facet normal 0.0 0.0 -1.0
  outer loop
    vertex 646.8521569989064 26.211374522783597 -0.25063373250574905
    vertex 642.541702272063 32.2438745227836 -0.25063373250574905
    vertex 644.4391569989062 32.2438745227836 -0.25063373250574905
  endloop
endfacet
facet normal 0.0 0.0 -1.0
  outer loop
    vertex 646.8521569989064 26.211374522783597 -0.25063373250574905
    vertex 644.4391569989062 32.2438745227836 -0.25063373250574905
    vertex 646.8521569989064 81.71037452278361 -0.25063373250574905
  endloop
endfacet
facet normal 0.0 0.0 -1.0
  outer loop
    vertex 624.7200310662092 55.16737452278339 -0.25063373250574905
    vertex 623.9491487239403 50.893299917083716 -0.25063373250574905
    vertex 623.9491487239402 57.02844912848305 -0.25063373250574905
  endloop
endfacet
facet normal 0.0 0.0 -1.0
  outer loop
    vertex 623.9491487239403 50.893299917083716 -0.25063373250574905
    vertex 624.7200310662092 55.16737452278339 -0.25063373250574905
    vertex 624.7200310662092 52.75437452278341 -0.25063373250574905
  endloop
endfacet
facet normal 0.0 0.0 -1.0
  outer loop
    vertex 624.7200310662092 52.75437452278341 -0.25063373250574905
    vertex 624.7200310662092 55.16737452278339 -0.25063373250574905
    vertex 644.4391569989062 55.16737452278356 -0.25063373250574905
  endloop
endfacet
facet normal 0.0 0.0 -1.0
  outer loop
    vertex 624.7200310662092 52.75437452278341 -0.25063373250574905
    vertex 644.4391569989062 55.16737452278356 -0.25063373250574905
    vertex 644.4391569989062 52.754374522783564 -0.25063373250574905
  endloop
endfacet
facet normal 0.0 0.0 -1.0
  outer loop
    vertex 622.2379563136645 58.72974290708926 -0.25063373250574905
    vertex 620.3937797292124 48.428123185786475 -0.25063373250574905
    vertex 620.3937797292124 59.4936258597802 -0.25063373250574905
  endloop
endfacet
facet normal 0.0 0.0 -1.0
  outer loop
    vertex 620.3937797292124 48.428123185786475 -0.25063373250574905
    vertex 622.2379563136645 58.72974290708926 -0.25063373250574905
    vertex 622.2379563136645 49.19200613847749 -0.25063373250574905
  endloop
endfacet
facet normal 0.0 0.0 -1.0
  outer loop
    vertex 622.2379563136645 49.19200613847749 -0.25063373250574905
    vertex 622.2379563136645 58.72974290708926 -0.25063373250574905
    vertex 623.9491487239402 57.02844912848305 -0.25063373250574905
  endloop
endfacet
facet normal 0.0 0.0 -1.0
  outer loop
    vertex 623.9491487239402 57.02844912848305 -0.25063373250574905
    vertex 622.2379563136645 58.72974290708926 -0.25063373250574905
    vertex 640.8196569989063 77.36828224122114 -0.25063373250574905
  endloop
endfacet
facet normal 0.0 0.0 -1.0
  outer loop
    vertex 623.9491487239402 57.02844912848305 -0.25063373250574905
    vertex 640.8196569989063 77.36828224122114 -0.25063373250574905
    vertex 642.541702272063 75.67787452278361 -0.25063373250574905
  endloop
endfacet
facet normal 0.923879532511285 0.3826834323650942 0.0
  outer loop
    vertex 623.9491487239402 57.02844912848305 -0.25063373250574905
    vertex 624.7200310662092 55.16737452278339 2.1623662674942508
    vertex 624.7200310662092 55.16737452278339 -0.25063373250574905
  endloop
endfacet
facet normal 0.923879532511285 0.3826834323650942 0.0
  outer loop
    vertex 624.7200310662092 55.16737452278339 2.1623662674942508
    vertex 623.9491487239402 57.02844912848305 -0.25063373250574905
    vertex 623.9491487239402 57.02844912848305 2.1623662674942508
  endloop
endfacet
facet normal -8.694805374441941e-15 1.0 0.0
  outer loop
    vertex 624.7200310662092 55.16737452278339 2.1623662674942508
    vertex 644.4391569989062 55.16737452278356 -0.25063373250574905
    vertex 624.7200310662092 55.16737452278339 -0.25063373250574905
  endloop
endfacet
facet normal -8.694805374441941e-15 1.0 0.0
  outer loop
    vertex 644.4391569989062 55.16737452278356 -0.25063373250574905
    vertex 624.7200310662092 55.16737452278339 2.1623662674942508
    vertex 644.4391569989062 55.16737452278356 2.1623662674942508
  endloop
endfacet
facet normal -1.0 -0.0 -0.0
  outer loop
    vertex 640.8196569989063 30.553466804345934 2.1623662674942508
    vertex 640.8196569989063 28.624374522783526 -0.25063373250574905
    vertex 640.8196569989063 28.624374522783526 2.1623662674942508
  endloop
endfacet
facet normal -1.0 -0.0 -0.0
  outer loop
    vertex 640.8196569989063 28.624374522783526 -0.25063373250574905
    vertex 640.8196569989063 30.553466804345934 2.1623662674942508
    vertex 640.8196569989063 30.553466804345934 -0.25063373250574905
  endloop
endfacet
facet normal -1.0 -0.0 -0.0
  outer loop
    vertex 644.4391569989062 52.754374522783564 2.1623662674942508
    vertex 644.4391569989062 32.2438745227836 -0.25063373250574905
    vertex 644.4391569989062 32.2438745227836 2.1623662674942508
  endloop
endfacet
facet normal -1.0 -0.0 -0.0
  outer loop
    vertex 644.4391569989062 32.2438745227836 -0.25063373250574905
    vertex 644.4391569989062 52.754374522783564 2.1623662674942508
    vertex 644.4391569989062 52.754374522783564 -0.25063373250574905
  endloop
endfacet
facet normal -1.0 -0.0 -0.0
  outer loop
    vertex 617.9807797292124 79.29737452278361 2.1623662674942508
    vertex 617.9807797292124 59.49362585978024 -0.25063373250574905
    vertex 617.9807797292124 59.49362585978024 2.1623662674942508
  endloop
endfacet
facet normal -1.0 -0.0 -0.0
  outer loop
    vertex 617.9807797292124 59.49362585978024 -0.25063373250574905
    vertex 617.9807797292124 79.29737452278361 2.1623662674942508
    vertex 617.9807797292124 79.29737452278361 -0.25063373250574905
  endloop
endfacet
facet normal 0.9238795325112874 -0.3826834323650882 0.0
  outer loop
    vertex 624.7200310662092 52.75437452278341 -0.25063373250574905
    vertex 623.9491487239403 50.893299917083716 2.1623662674942508
    vertex 623.9491487239403 50.893299917083716 -0.25063373250574905
  endloop
endfacet
facet normal 0.9238795325112874 -0.3826834323650882 0.0
  outer loop
    vertex 623.9491487239403 50.893299917083716 2.1623662674942508
    vertex 624.7200310662092 52.75437452278341 -0.25063373250574905
    vertex 624.7200310662092 52.75437452278341 2.1623662674942508
  endloop
endfacet
facet normal -0.7081857709943841 -0.7060261424062779 -0.0
  outer loop
    vertex 595.8328571863617 75.67787452278361 2.1623662674942508
    vertex 614.4254107344844 57.028449128483054 -0.25063373250574905
    vertex 614.4254107344844 57.028449128483054 2.1623662674942508
  endloop
endfacet
facet normal -0.7081857709943841 -0.7060261424062779 -0.0
  outer loop
    vertex 614.4254107344844 57.028449128483054 -0.25063373250574905
    vertex 595.8328571863617 75.67787452278361 2.1623662674942508
    vertex 595.8328571863617 75.67787452278361 -0.25063373250574905
  endloop
endfacet
facet normal -0.70818577099439 0.706026142406272 0.0
  outer loop
    vertex 614.4254107344844 50.89329991708362 2.1623662674942508
    vertex 595.8328571863616 32.24387452278262 -0.25063373250574905
    vertex 595.8328571863616 32.24387452278262 2.1623662674942508
  endloop
endfacet
facet normal -0.70818577099439 0.706026142406272 0.0
  outer loop
    vertex 595.8328571863616 32.24387452278262 -0.25063373250574905
    vertex 614.4254107344844 50.89329991708362 2.1623662674942508
    vertex 614.4254107344844 50.89329991708362 -0.25063373250574905
  endloop
endfacet
facet normal -1.0 -0.0 -0.0
  outer loop
    vertex 644.4391569989062 75.67787452278361 2.1623662674942508
    vertex 644.4391569989062 55.16737452278356 -0.25063373250574905
    vertex 644.4391569989062 55.16737452278356 2.1623662674942508
  endloop
endfacet
facet normal -1.0 -0.0 -0.0
  outer loop
    vertex 644.4391569989062 55.16737452278356 -0.25063373250574905
    vertex 644.4391569989062 75.67787452278361 2.1623662674942508
    vertex 644.4391569989062 75.67787452278361 -0.25063373250574905
  endloop
endfacet
facet normal 0.0 -1.0 0.0
  outer loop
    vertex 644.4391569989062 75.67787452278361 2.1623662674942508
    vertex 642.541702272063 75.67787452278361 -0.25063373250574905
    vertex 644.4391569989062 75.67787452278361 -0.25063373250574905
  endloop
endfacet
facet normal 0.0 -1.0 0.0
  outer loop
    vertex 642.541702272063 75.67787452278361 -0.25063373250574905
    vertex 644.4391569989062 75.67787452278361 2.1623662674942508
    vertex 642.541702272063 75.67787452278361 2.1623662674942508
  endloop
endfacet
facet normal 0.0 1.0 0.0
  outer loop
    vertex 593.9354024595184 32.24387452278262 2.1623662674942508
    vertex 595.8328571863616 32.24387452278262 -0.25063373250574905
    vertex 593.9354024595184 32.24387452278262 -0.25063373250574905
  endloop
endfacet
facet normal 0.0 1.0 0.0
  outer loop
    vertex 595.8328571863616 32.24387452278262 -0.25063373250574905
    vertex 593.9354024595184 32.24387452278262 2.1623662674942508
    vertex 595.8328571863616 32.24387452278262 2.1623662674942508
  endloop
endfacet
facet normal 0.7081857709943838 -0.7060261424062781 0.0
  outer loop
    vertex 642.541702272063 75.67787452278361 -0.25063373250574905
    vertex 623.9491487239402 57.02844912848305 2.1623662674942508
    vertex 623.9491487239402 57.02844912848305 -0.25063373250574905
  endloop
endfacet
facet normal 0.7081857709943838 -0.7060261424062781 0.0
  outer loop
    vertex 623.9491487239402 57.02844912848305 2.1623662674942508
    vertex 642.541702272063 75.67787452278361 -0.25063373250574905
    vertex 642.541702272063 75.67787452278361 2.1623662674942508
  endloop
endfacet
facet normal 1.0 0.0 0.0
  outer loop
    vertex 620.3937797292124 48.428123185786475 -0.25063373250574905
    vertex 620.3937797292124 28.624374522783132 2.1623662674942508
    vertex 620.3937797292124 28.624374522783132 -0.25063373250574905
  endloop
endfacet
facet normal 1.0 0.0 0.0
  outer loop
    vertex 620.3937797292124 28.624374522783132 2.1623662674942508
    vertex 620.3937797292124 48.428123185786475 -0.25063373250574905
    vertex 620.3937797292124 48.428123185786475 2.1623662674942508
  endloop
endfacet
facet normal -1.930610410083046e-14 1.0 0.0
  outer loop
    vertex 620.3937797292124 28.624374522783132 2.1623662674942508
    vertex 640.8196569989063 28.624374522783526 -0.25063373250574905
    vertex 620.3937797292124 28.624374522783132 -0.25063373250574905
  endloop
endfacet
facet normal -1.930610410083046e-14 1.0 0.0
  outer loop
    vertex 640.8196569989063 28.624374522783526 -0.25063373250574905
    vertex 620.3937797292124 28.624374522783132 2.1623662674942508
    vertex 640.8196569989063 28.624374522783526 2.1623662674942508
  endloop
endfacet
facet normal -2.0984895761772272e-14 1.0 0.0
  outer loop
    vertex 597.5549024595185 28.62437452278267 2.1623662674942508
    vertex 617.9807797292124 28.6243745227831 -0.25063373250574905
    vertex 597.5549024595185 28.62437452278267 -0.25063373250574905
  endloop
endfacet
facet normal -2.0984895761772272e-14 1.0 0.0
  outer loop
    vertex 617.9807797292124 28.6243745227831 -0.25063373250574905
    vertex 597.5549024595185 28.62437452278267 2.1623662674942508
    vertex 617.9807797292124 28.6243745227831 2.1623662674942508
  endloop
endfacet
facet normal -1.0 -0.0 -0.0
  outer loop
    vertex 617.9807797292124 48.42812318578651 2.1623662674942508
    vertex 617.9807797292124 28.6243745227831 -0.25063373250574905
    vertex 617.9807797292124 28.6243745227831 2.1623662674942508
  endloop
endfacet
facet normal -1.0 -0.0 -0.0
  outer loop
    vertex 617.9807797292124 28.6243745227831 -0.25063373250574905
    vertex 617.9807797292124 48.42812318578651 2.1623662674942508
    vertex 617.9807797292124 48.42812318578651 -0.25063373250574905
  endloop
endfacet
facet normal -0.3826834323650771 -0.9238795325112921 -0.0
  outer loop
    vertex 617.9807797292124 48.42812318578651 2.1623662674942508
    vertex 616.1366031447603 49.19200613847743 -0.25063373250574905
    vertex 617.9807797292124 48.42812318578651 -0.25063373250574905
  endloop
endfacet
facet normal -0.3826834323650771 -0.9238795325112921 -0.0
  outer loop
    vertex 616.1366031447603 49.19200613847743 -0.25063373250574905
    vertex 617.9807797292124 48.42812318578651 2.1623662674942508
    vertex 616.1366031447603 49.19200613847743 2.1623662674942508
  endloop
endfacet
facet normal -0.9238795325112826 -0.3826834323650997 -0.0
  outer loop
    vertex 613.6545283922155 52.754374522783316 2.1623662674942508
    vertex 614.4254107344844 50.89329991708362 -0.25063373250574905
    vertex 614.4254107344844 50.89329991708362 2.1623662674942508
  endloop
endfacet
facet normal -0.9238795325112826 -0.3826834323650997 -0.0
  outer loop
    vertex 614.4254107344844 50.89329991708362 -0.25063373250574905
    vertex 613.6545283922155 52.754374522783316 2.1623662674942508
    vertex 613.6545283922155 52.754374522783316 -0.25063373250574905
  endloop
endfacet
facet normal 0.708185770994391 -0.7060261424062712 0.0
  outer loop
    vertex 616.1366031447603 49.19200613847743 -0.25063373250574905
    vertex 597.5549024595185 30.553466804345142 2.1623662674942508
    vertex 597.5549024595185 30.553466804345142 -0.25063373250574905
  endloop
endfacet
facet normal 0.708185770994391 -0.7060261424062712 0.0
  outer loop
    vertex 597.5549024595185 30.553466804345142 2.1623662674942508
    vertex 616.1366031447603 49.19200613847743 -0.25063373250574905
    vertex 616.1366031447603 49.19200613847743 2.1623662674942508
  endloop
endfacet
facet normal 7.825324836997759e-15 -1.0 0.0
  outer loop
    vertex 644.4391569989062 52.754374522783564 2.1623662674942508
    vertex 624.7200310662092 52.75437452278341 -0.25063373250574905
    vertex 644.4391569989062 52.754374522783564 -0.25063373250574905
  endloop
endfacet
facet normal 7.825324836997759e-15 -1.0 0.0
  outer loop
    vertex 624.7200310662092 52.75437452278341 -0.25063373250574905
    vertex 644.4391569989062 52.754374522783564 2.1623662674942508
    vertex 624.7200310662092 52.75437452278341 2.1623662674942508
  endloop
endfacet
facet normal 1.0 0.0 0.0
  outer loop
    vertex 593.9354024595184 52.75437452278316 -0.25063373250574905
    vertex 593.9354024595184 32.24387452278262 2.1623662674942508
    vertex 593.9354024595184 32.24387452278262 -0.25063373250574905
  endloop
endfacet
facet normal 1.0 0.0 0.0
  outer loop
    vertex 593.9354024595184 32.24387452278262 2.1623662674942508
    vertex 593.9354024595184 52.75437452278316 -0.25063373250574905
    vertex 593.9354024595184 52.75437452278316 2.1623662674942508
  endloop
endfacet
facet normal 1.0 0.0 0.0
  outer loop
    vertex 597.5549024595185 30.553466804345142 -0.25063373250574905
    vertex 597.5549024595185 28.62437452278267 2.1623662674942508
    vertex 597.5549024595185 28.62437452278267 -0.25063373250574905
  endloop
endfacet
facet normal 1.0 0.0 0.0
  outer loop
    vertex 597.5549024595185 28.62437452278267 2.1623662674942508
    vertex 597.5549024595185 30.553466804345142 -0.25063373250574905
    vertex 597.5549024595185 30.553466804345142 2.1623662674942508
  endloop
endfacet
facet normal 0.0 1.0 0.0
  outer loop
    vertex 591.5224024595185 81.71037452278361 2.1623662674942508
    vertex 646.8521569989064 81.71037452278361 -0.25063373250574905
    vertex 591.5224024595185 81.71037452278361 -0.25063373250574905
  endloop
endfacet
facet normal 0.0 1.0 0.0
  outer loop
    vertex 646.8521569989064 81.71037452278361 -0.25063373250574905
    vertex 591.5224024595185 81.71037452278361 2.1623662674942508
    vertex 646.8521569989064 81.71037452278361 2.1623662674942508
  endloop
endfacet
facet normal 1.0 0.0 0.0
  outer loop
    vertex 646.8521569989064 81.71037452278361 -0.25063373250574905
    vertex 646.8521569989064 26.211374522783597 2.1623662674942508
    vertex 646.8521569989064 26.211374522783597 -0.25063373250574905
  endloop
endfacet
facet normal 1.0 0.0 0.0
  outer loop
    vertex 646.8521569989064 26.211374522783597 2.1623662674942508
    vertex 646.8521569989064 81.71037452278361 -0.25063373250574905
    vertex 646.8521569989064 81.71037452278361 2.1623662674942508
  endloop
endfacet
facet normal 1.7662966198342575e-14 -1.0 0.0
  outer loop
    vertex 646.8521569989064 26.211374522783597 2.1623662674942508
    vertex 591.5224024595185 26.21137452278262 -0.25063373250574905
    vertex 646.8521569989064 26.211374522783597 -0.25063373250574905
  endloop
endfacet
facet normal 1.7662966198342575e-14 -1.0 0.0
  outer loop
    vertex 591.5224024595185 26.21137452278262 -0.25063373250574905
    vertex 646.8521569989064 26.211374522783597 2.1623662674942508
    vertex 591.5224024595185 26.21137452278262 2.1623662674942508
  endloop
endfacet
facet normal -1.0 -0.0 -0.0
  outer loop
    vertex 591.5224024595185 81.71037452278361 2.1623662674942508
    vertex 591.5224024595185 26.21137452278262 -0.25063373250574905
    vertex 591.5224024595185 26.21137452278262 2.1623662674942508
  endloop
endfacet
facet normal -1.0 -0.0 -0.0
  outer loop
    vertex 591.5224024595185 26.21137452278262 -0.25063373250574905
    vertex 591.5224024595185 81.71037452278361 2.1623662674942508
    vertex 591.5224024595185 81.71037452278361 -0.25063373250574905
  endloop
endfacet
facet normal 0.0 1.0 0.0
  outer loop
    vertex 642.541702272063 32.2438745227836 2.1623662674942508
    vertex 644.4391569989062 32.2438745227836 -0.25063373250574905
    vertex 642.541702272063 32.2438745227836 -0.25063373250574905
  endloop
endfacet
facet normal 0.0 1.0 0.0
  outer loop
    vertex 644.4391569989062 32.2438745227836 -0.25063373250574905
    vertex 642.541702272063 32.2438745227836 2.1623662674942508
    vertex 644.4391569989062 32.2438745227836 2.1623662674942508
  endloop
endfacet
facet normal 0.0 0.0 1.0
  outer loop
    vertex 622.2379563136645 49.19200613847749 2.1623662674942508
    vertex 620.3937797292124 59.4936258597802 2.1623662674942508
    vertex 620.3937797292124 48.428123185786475 2.1623662674942508
  endloop
endfacet
facet normal 0.0 0.0 1.0
  outer loop
    vertex 620.3937797292124 59.4936258597802 2.1623662674942508
    vertex 622.2379563136645 49.19200613847749 2.1623662674942508
    vertex 622.2379563136645 58.72974290708926 2.1623662674942508
  endloop
endfacet
facet normal 0.0 0.0 1.0
  outer loop
    vertex 622.2379563136645 58.72974290708926 2.1623662674942508
    vertex 622.2379563136645 49.19200613847749 2.1623662674942508
    vertex 623.9491487239402 57.02844912848305 2.1623662674942508
  endloop
endfacet
facet normal 0.0 0.0 1.0
  outer loop
    vertex 622.2379563136645 58.72974290708926 2.1623662674942508
    vertex 623.9491487239402 57.02844912848305 2.1623662674942508
    vertex 640.8196569989063 77.36828224122114 2.1623662674942508
  endloop
endfacet
facet normal 0.0 0.0 1.0
  outer loop
    vertex 640.8196569989063 77.36828224122114 2.1623662674942508
    vertex 623.9491487239402 57.02844912848305 2.1623662674942508
    vertex 642.541702272063 75.67787452278361 2.1623662674942508
  endloop
endfacet
facet normal 0.0 0.0 1.0
  outer loop
    vertex 640.8196569989063 77.36828224122114 2.1623662674942508
    vertex 642.541702272063 75.67787452278361 2.1623662674942508
    vertex 640.8196569989063 79.29737452278361 2.1623662674942508
  endloop
endfacet
facet normal 0.0 0.0 1.0
  outer loop
    vertex 591.5224024595185 26.21137452278262 2.1623662674942508
    vertex 593.9354024595184 32.24387452278262 2.1623662674942508
    vertex 591.5224024595185 81.71037452278361 2.1623662674942508
  endloop
endfacet
facet normal 0.0 0.0 1.0
  outer loop
    vertex 593.9354024595184 32.24387452278262 2.1623662674942508
    vertex 591.5224024595185 26.21137452278262 2.1623662674942508
    vertex 597.5549024595185 28.62437452278267 2.1623662674942508
  endloop
endfacet
facet normal 0.0 0.0 1.0
  outer loop
    vertex 597.5549024595185 28.62437452278267 2.1623662674942508
    vertex 591.5224024595185 26.21137452278262 2.1623662674942508
    vertex 646.8521569989064 26.211374522783597 2.1623662674942508
  endloop
endfacet
facet normal 0.0 0.0 1.0
  outer loop
    vertex 593.9354024595184 32.24387452278262 2.1623662674942508
    vertex 597.5549024595185 28.62437452278267 2.1623662674942508
    vertex 595.8328571863616 32.24387452278262 2.1623662674942508
  endloop
endfacet
facet normal 0.0 0.0 1.0
  outer loop
    vertex 597.5549024595185 28.62437452278267 2.1623662674942508
    vertex 646.8521569989064 26.211374522783597 2.1623662674942508
    vertex 617.9807797292124 28.6243745227831 2.1623662674942508
  endloop
endfacet
facet normal 0.0 0.0 1.0
  outer loop
    vertex 617.9807797292124 28.6243745227831 2.1623662674942508
    vertex 646.8521569989064 26.211374522783597 2.1623662674942508
    vertex 620.3937797292124 28.624374522783132 2.1623662674942508
  endloop
endfacet
facet normal 0.0 0.0 1.0
  outer loop
    vertex 617.9807797292124 28.6243745227831 2.1623662674942508
    vertex 620.3937797292124 28.624374522783132 2.1623662674942508
    vertex 617.9807797292124 48.42812318578651 2.1623662674942508
  endloop
endfacet
facet normal 0.0 0.0 1.0
  outer loop
    vertex 617.9807797292124 48.42812318578651 2.1623662674942508
    vertex 620.3937797292124 28.624374522783132 2.1623662674942508
    vertex 617.9807797292124 59.49362585978024 2.1623662674942508
  endloop
endfacet
facet normal 0.0 0.0 1.0
  outer loop
    vertex 617.9807797292124 59.49362585978024 2.1623662674942508
    vertex 620.3937797292124 28.624374522783132 2.1623662674942508
    vertex 617.9807797292124 79.29737452278361 2.1623662674942508
  endloop
endfacet
facet normal 0.0 0.0 1.0
  outer loop
    vertex 620.3937797292124 28.624374522783132 2.1623662674942508
    vertex 646.8521569989064 26.211374522783597 2.1623662674942508
    vertex 640.8196569989063 28.624374522783526 2.1623662674942508
  endloop
endfacet
facet normal 0.0 0.0 1.0
  outer loop
    vertex 640.8196569989063 28.624374522783526 2.1623662674942508
    vertex 646.8521569989064 26.211374522783597 2.1623662674942508
    vertex 640.8196569989063 30.553466804345934 2.1623662674942508
  endloop
endfacet
facet normal 0.0 0.0 1.0
  outer loop
    vertex 640.8196569989063 30.553466804345934 2.1623662674942508
    vertex 646.8521569989064 26.211374522783597 2.1623662674942508
    vertex 642.541702272063 32.2438745227836 2.1623662674942508
  endloop
endfacet
facet normal 0.0 0.0 1.0
  outer loop
    vertex 642.541702272063 32.2438745227836 2.1623662674942508
    vertex 646.8521569989064 26.211374522783597 2.1623662674942508
    vertex 644.4391569989062 32.2438745227836 2.1623662674942508
  endloop
endfacet
facet normal 0.0 0.0 1.0
  outer loop
    vertex 644.4391569989062 32.2438745227836 2.1623662674942508
    vertex 646.8521569989064 26.211374522783597 2.1623662674942508
    vertex 644.4391569989062 52.754374522783564 2.1623662674942508
  endloop
endfacet
facet normal 0.0 0.0 1.0
  outer loop
    vertex 644.4391569989062 52.754374522783564 2.1623662674942508
    vertex 646.8521569989064 26.211374522783597 2.1623662674942508
    vertex 644.4391569989062 55.16737452278356 2.1623662674942508
  endloop
endfacet
facet normal 0.0 0.0 1.0
  outer loop
    vertex 644.4391569989062 55.16737452278356 2.1623662674942508
    vertex 646.8521569989064 26.211374522783597 2.1623662674942508
    vertex 644.4391569989062 75.67787452278361 2.1623662674942508
  endloop
endfacet
facet normal 0.0 0.0 1.0
  outer loop
    vertex 591.5224024595185 81.71037452278361 2.1623662674942508
    vertex 597.5549024595185 79.29737452278361 2.1623662674942508
    vertex 646.8521569989064 81.71037452278361 2.1623662674942508
  endloop
endfacet
facet normal 0.0 0.0 1.0
  outer loop
    vertex 597.5549024595185 79.29737452278361 2.1623662674942508
    vertex 591.5224024595185 81.71037452278361 2.1623662674942508
    vertex 593.9354024595184 75.67787452278361 2.1623662674942508
  endloop
endfacet
facet normal 0.0 0.0 1.0
  outer loop
    vertex 593.9354024595184 75.67787452278361 2.1623662674942508
    vertex 591.5224024595185 81.71037452278361 2.1623662674942508
    vertex 593.9354024595184 32.24387452278262 2.1623662674942508
  endloop
endfacet
facet normal 0.0 0.0 1.0
  outer loop
    vertex 593.9354024595184 75.67787452278361 2.1623662674942508
    vertex 593.9354024595184 32.24387452278262 2.1623662674942508
    vertex 593.9354024595184 52.75437452278316 2.1623662674942508
  endloop
endfacet
facet normal 0.0 0.0 1.0
  outer loop
    vertex 593.9354024595184 75.67787452278361 2.1623662674942508
    vertex 593.9354024595184 52.75437452278316 2.1623662674942508
    vertex 593.9354024595184 55.16737452278315 2.1623662674942508
  endloop
endfacet
facet normal 0.0 0.0 1.0
  outer loop
    vertex 597.5549024595185 79.29737452278361 2.1623662674942508
    vertex 593.9354024595184 75.67787452278361 2.1623662674942508
    vertex 595.8328571863617 75.67787452278361 2.1623662674942508
  endloop
endfacet
facet normal 0.0 0.0 1.0
  outer loop
    vertex 597.5549024595185 79.29737452278361 2.1623662674942508
    vertex 595.8328571863617 75.67787452278361 2.1623662674942508
    vertex 597.5549024595185 77.36828224122114 2.1623662674942508
  endloop
endfacet
facet normal 0.0 0.0 1.0
  outer loop
    vertex 646.8521569989064 81.71037452278361 2.1623662674942508
    vertex 597.5549024595185 79.29737452278361 2.1623662674942508
    vertex 617.9807797292124 79.29737452278361 2.1623662674942508
  endloop
endfacet
facet normal 0.0 0.0 1.0
  outer loop
    vertex 646.8521569989064 81.71037452278361 2.1623662674942508
    vertex 617.9807797292124 79.29737452278361 2.1623662674942508
    vertex 620.3937797292124 79.29737452278361 2.1623662674942508
  endloop
endfacet
facet normal 0.0 0.0 1.0
  outer loop
    vertex 620.3937797292124 79.29737452278361 2.1623662674942508
    vertex 617.9807797292124 79.29737452278361 2.1623662674942508
    vertex 620.3937797292124 28.624374522783132 2.1623662674942508
  endloop
endfacet
facet normal 0.0 0.0 1.0
  outer loop
    vertex 620.3937797292124 79.29737452278361 2.1623662674942508
    vertex 620.3937797292124 28.624374522783132 2.1623662674942508
    vertex 620.3937797292124 48.428123185786475 2.1623662674942508
  endloop
endfacet
facet normal 0.0 0.0 1.0
  outer loop
    vertex 620.3937797292124 79.29737452278361 2.1623662674942508
    vertex 620.3937797292124 48.428123185786475 2.1623662674942508
    vertex 620.3937797292124 59.4936258597802 2.1623662674942508
  endloop
endfacet
facet normal 0.0 0.0 1.0
  outer loop
    vertex 646.8521569989064 81.71037452278361 2.1623662674942508
    vertex 620.3937797292124 79.29737452278361 2.1623662674942508
    vertex 640.8196569989063 79.29737452278361 2.1623662674942508
  endloop
endfacet
facet normal 0.0 0.0 1.0
  outer loop
    vertex 646.8521569989064 81.71037452278361 2.1623662674942508
    vertex 640.8196569989063 79.29737452278361 2.1623662674942508
    vertex 642.541702272063 75.67787452278361 2.1623662674942508
  endloop
endfacet
facet normal 0.0 0.0 1.0
  outer loop
    vertex 646.8521569989064 81.71037452278361 2.1623662674942508
    vertex 642.541702272063 75.67787452278361 2.1623662674942508
    vertex 644.4391569989062 75.67787452278361 2.1623662674942508
  endloop
endfacet
facet normal 0.0 0.0 1.0
  outer loop
    vertex 646.8521569989064 81.71037452278361 2.1623662674942508
    vertex 644.4391569989062 75.67787452278361 2.1623662674942508
    vertex 646.8521569989064 26.211374522783597 2.1623662674942508
  endloop
endfacet
facet normal 0.0 0.0 1.0
  outer loop
    vertex 623.9491487239403 50.893299917083716 2.1623662674942508
    vertex 624.7200310662092 55.16737452278339 2.1623662674942508
    vertex 623.9491487239402 57.02844912848305 2.1623662674942508
  endloop
endfacet
facet normal 0.0 0.0 1.0
  outer loop
    vertex 624.7200310662092 55.16737452278339 2.1623662674942508
    vertex 623.9491487239403 50.893299917083716 2.1623662674942508
    vertex 624.7200310662092 52.75437452278341 2.1623662674942508
  endloop
endfacet
facet normal 0.0 0.0 1.0
  outer loop
    vertex 624.7200310662092 55.16737452278339 2.1623662674942508
    vertex 624.7200310662092 52.75437452278341 2.1623662674942508
    vertex 644.4391569989062 55.16737452278356 2.1623662674942508
  endloop
endfacet
facet normal 0.0 0.0 1.0
  outer loop
    vertex 644.4391569989062 55.16737452278356 2.1623662674942508
    vertex 624.7200310662092 52.75437452278341 2.1623662674942508
    vertex 644.4391569989062 52.754374522783564 2.1623662674942508
  endloop
endfacet
facet normal 0.0 0.0 1.0
  outer loop
    vertex 622.2379563136645 49.19200613847749 2.1623662674942508
    vertex 623.9491487239403 50.893299917083716 2.1623662674942508
    vertex 623.9491487239402 57.02844912848305 2.1623662674942508
  endloop
endfacet
facet normal 0.0 0.0 1.0
  outer loop
    vertex 623.9491487239403 50.893299917083716 2.1623662674942508
    vertex 622.2379563136645 49.19200613847749 2.1623662674942508
    vertex 640.8196569989063 30.553466804345934 2.1623662674942508
  endloop
endfacet
facet normal 0.0 0.0 1.0
  outer loop
    vertex 623.9491487239403 50.893299917083716 2.1623662674942508
    vertex 640.8196569989063 30.553466804345934 2.1623662674942508
    vertex 642.541702272063 32.2438745227836 2.1623662674942508
  endloop
endfacet
facet normal 0.0 0.0 1.0
  outer loop
    vertex 613.6545283922155 52.754374522783316 2.1623662674942508
    vertex 593.9354024595184 55.16737452278315 2.1623662674942508
    vertex 593.9354024595184 52.75437452278316 2.1623662674942508
  endloop
endfacet
facet normal 0.0 0.0 1.0
  outer loop
    vertex 593.9354024595184 55.16737452278315 2.1623662674942508
    vertex 613.6545283922155 52.754374522783316 2.1623662674942508
    vertex 613.6545283922155 55.16737452278332 2.1623662674942508
  endloop
endfacet
facet normal 0.0 0.0 1.0
  outer loop
    vertex 613.6545283922155 55.16737452278332 2.1623662674942508
    vertex 613.6545283922155 52.754374522783316 2.1623662674942508
    vertex 614.4254107344844 57.028449128483054 2.1623662674942508
  endloop
endfacet
facet normal 0.0 0.0 1.0
  outer loop
    vertex 614.4254107344844 57.028449128483054 2.1623662674942508
    vertex 613.6545283922155 52.754374522783316 2.1623662674942508
    vertex 614.4254107344844 50.89329991708362 2.1623662674942508
  endloop
endfacet
facet normal 0.0 0.0 1.0
  outer loop
    vertex 595.8328571863616 32.24387452278262 2.1623662674942508
    vertex 597.5549024595185 30.553466804345142 2.1623662674942508
    vertex 614.4254107344844 50.89329991708362 2.1623662674942508
  endloop
endfacet
facet normal 0.0 0.0 1.0
  outer loop
    vertex 597.5549024595185 30.553466804345142 2.1623662674942508
    vertex 595.8328571863616 32.24387452278262 2.1623662674942508
    vertex 597.5549024595185 28.62437452278267 2.1623662674942508
  endloop
endfacet
facet normal 0.0 0.0 1.0
  outer loop
    vertex 614.4254107344844 50.89329991708362 2.1623662674942508
    vertex 597.5549024595185 30.553466804345142 2.1623662674942508
    vertex 616.1366031447603 49.19200613847743 2.1623662674942508
  endloop
endfacet
facet normal 0.0 0.0 1.0
  outer loop
    vertex 614.4254107344844 50.89329991708362 2.1623662674942508
    vertex 616.1366031447603 49.19200613847743 2.1623662674942508
    vertex 616.1366031447602 58.729742907089246 2.1623662674942508
  endloop
endfacet
facet normal 0.0 0.0 1.0
  outer loop
    vertex 616.1366031447602 58.729742907089246 2.1623662674942508
    vertex 616.1366031447603 49.19200613847743 2.1623662674942508
    vertex 617.9807797292124 59.49362585978024 2.1623662674942508
  endloop
endfacet
facet normal 0.0 0.0 1.0
  outer loop
    vertex 617.9807797292124 59.49362585978024 2.1623662674942508
    vertex 616.1366031447603 49.19200613847743 2.1623662674942508
    vertex 617.9807797292124 48.42812318578651 2.1623662674942508
  endloop
endfacet
facet normal 0.0 0.0 1.0
  outer loop
    vertex 614.4254107344844 57.028449128483054 2.1623662674942508
    vertex 597.5549024595185 77.36828224122114 2.1623662674942508
    vertex 595.8328571863617 75.67787452278361 2.1623662674942508
  endloop
endfacet
facet normal 0.0 0.0 1.0
  outer loop
    vertex 597.5549024595185 77.36828224122114 2.1623662674942508
    vertex 614.4254107344844 57.028449128483054 2.1623662674942508
    vertex 616.1366031447602 58.729742907089246 2.1623662674942508
  endloop
endfacet
facet normal 0.0 0.0 1.0
  outer loop
    vertex 616.1366031447602 58.729742907089246 2.1623662674942508
    vertex 614.4254107344844 57.028449128483054 2.1623662674942508
    vertex 614.4254107344844 50.89329991708362 2.1623662674942508
  endloop
endfacet
facet normal -0.7081857709943776 -0.7060261424062845 -0.0
  outer loop
    vertex 622.2379563136645 49.19200613847749 2.1623662674942508
    vertex 640.8196569989063 30.553466804345934 -0.25063373250574905
    vertex 640.8196569989063 30.553466804345934 2.1623662674942508
  endloop
endfacet
facet normal -0.7081857709943776 -0.7060261424062845 -0.0
  outer loop
    vertex 640.8196569989063 30.553466804345934 -0.25063373250574905
    vertex 622.2379563136645 49.19200613847749 2.1623662674942508
    vertex 622.2379563136645 49.19200613847749 -0.25063373250574905
  endloop
endfacet
facet normal -1.0 -0.0 -0.0
  outer loop
    vertex 640.8196569989063 79.29737452278361 2.1623662674942508
    vertex 640.8196569989063 77.36828224122114 -0.25063373250574905
    vertex 640.8196569989063 77.36828224122114 2.1623662674942508
  endloop
endfacet
facet normal -1.0 -0.0 -0.0
  outer loop
    vertex 640.8196569989063 77.36828224122114 -0.25063373250574905
    vertex 640.8196569989063 79.29737452278361 2.1623662674942508
    vertex 640.8196569989063 79.29737452278361 -0.25063373250574905
  endloop
endfacet
facet normal 0.38268343236510155 -0.9238795325112819 0.0
  outer loop
    vertex 622.2379563136645 49.19200613847749 2.1623662674942508
    vertex 620.3937797292124 48.428123185786475 -0.25063373250574905
    vertex 622.2379563136645 49.19200613847749 -0.25063373250574905
  endloop
endfacet
facet normal 0.38268343236510155 -0.9238795325112819 0.0
  outer loop
    vertex 620.3937797292124 48.428123185786475 -0.25063373250574905
    vertex 622.2379563136645 49.19200613847749 2.1623662674942508
    vertex 620.3937797292124 48.428123185786475 2.1623662674942508
  endloop
endfacet
facet normal 1.0 0.0 0.0
  outer loop
    vertex 593.9354024595184 75.67787452278361 -0.25063373250574905
    vertex 593.9354024595184 55.16737452278315 2.1623662674942508
    vertex 593.9354024595184 55.16737452278315 -0.25063373250574905
  endloop
endfacet
facet normal 1.0 0.0 0.0
  outer loop
    vertex 593.9354024595184 55.16737452278315 2.1623662674942508
    vertex 593.9354024595184 75.67787452278361 -0.25063373250574905
    vertex 593.9354024595184 75.67787452278361 2.1623662674942508
  endloop
endfacet
facet normal 8.694805374441954e-15 -1.0 0.0
  outer loop
    vertex 613.6545283922155 52.754374522783316 2.1623662674942508
    vertex 593.9354024595184 52.75437452278316 -0.25063373250574905
    vertex 613.6545283922155 52.754374522783316 -0.25063373250574905
  endloop
endfacet
facet normal 8.694805374441954e-15 -1.0 0.0
  outer loop
    vertex 593.9354024595184 52.75437452278316 -0.25063373250574905
    vertex 613.6545283922155 52.754374522783316 2.1623662674942508
    vertex 593.9354024595184 52.75437452278316 2.1623662674942508
  endloop
endfacet
facet normal -0.9238795325112851 0.3826834323650937 0.0
  outer loop
    vertex 614.4254107344844 57.028449128483054 2.1623662674942508
    vertex 613.6545283922155 55.16737452278332 -0.25063373250574905
    vertex 613.6545283922155 55.16737452278332 2.1623662674942508
  endloop
endfacet
facet normal -0.9238795325112851 0.3826834323650937 0.0
  outer loop
    vertex 613.6545283922155 55.16737452278332 -0.25063373250574905
    vertex 614.4254107344844 57.028449128483054 2.1623662674942508
    vertex 614.4254107344844 57.028449128483054 -0.25063373250574905
  endloop
endfacet
facet normal 0.7081857709943774 0.7060261424062846 0.0
  outer loop
    vertex 623.9491487239403 50.893299917083716 -0.25063373250574905
    vertex 642.541702272063 32.2438745227836 2.1623662674942508
    vertex 642.541702272063 32.2438745227836 -0.25063373250574905
  endloop
endfacet
facet normal 0.7081857709943774 0.7060261424062846 0.0
  outer loop
    vertex 642.541702272063 32.2438745227836 2.1623662674942508
    vertex 623.9491487239403 50.893299917083716 -0.25063373250574905
    vertex 623.9491487239403 50.893299917083716 2.1623662674942508
  endloop
endfacet
facet normal 0.0 -1.0 0.0
  outer loop
    vertex 617.9807797292124 79.29737452278361 2.1623662674942508
    vertex 597.5549024595185 79.29737452278361 -0.25063373250574905
    vertex 617.9807797292124 79.29737452278361 -0.25063373250574905
  endloop
endfacet
facet normal 0.0 -1.0 0.0
  outer loop
    vertex 597.5549024595185 79.29737452278361 -0.25063373250574905
    vertex 617.9807797292124 79.29737452278361 2.1623662674942508
    vertex 597.5549024595185 79.29737452278361 2.1623662674942508
  endloop
endfacet
facet normal 1.0 0.0 0.0
  outer loop
    vertex 597.5549024595185 79.29737452278361 -0.25063373250574905
    vertex 597.5549024595185 77.36828224122114 2.1623662674942508
    vertex 597.5549024595185 77.36828224122114 -0.25063373250574905
  endloop
endfacet
facet normal 1.0 0.0 0.0
  outer loop
    vertex 597.5549024595185 77.36828224122114 2.1623662674942508
    vertex 597.5549024595185 79.29737452278361 -0.25063373250574905
    vertex 597.5549024595185 79.29737452278361 2.1623662674942508
  endloop
endfacet
endsolid clyde whirley 
